<?xml version="1.0" encoding="UTF-8"?>
<!DOCTYPE svg PUBLIC "-//W3C//DTD SVG 1.1//EN" "http://www.w3.org/Graphics/SVG/1.1/DTD/svg11.dtd">
<!-- Creator: CorelDRAW X8 -->
<svg xmlns="http://www.w3.org/2000/svg" xml:space="preserve" width="210mm" height="210mm" version="1.1" style="shape-rendering:geometricPrecision; text-rendering:geometricPrecision; image-rendering:optimizeQuality; fill-rule:evenodd; clip-rule:evenodd"
viewBox="0 0 21000 21000"
 xmlns:xlink="http://www.w3.org/1999/xlink">
 <defs>
  <style type="text/css">
   <![CDATA[
    .fil2 {fill:none}
    .fil0 {fill:#A9ABAE}
    .fil1 {fill:#A9ABAE;fill-rule:nonzero}
   ]]>
  </style>
 </defs>
 <g id="Camada_x0020_1">
  <metadata id="CorelCorpID_0Corel-Layer"/>
  <path class="fil0" d="M84075 7254l773 0 0 3044c-4,605 -780,617 -773,0l0 -3044zm-1700 0l811 0 0 3133c0,602 427,1215 1285,1215 859,0 1270,-613 1270,-1215l0 -3133 811 0 0 356c153,-203 490,-356 851,-356l1865 0 1662 0 0 2466c0,42 0,84 0,126 0,57 6,78 54,78 73,0 144,0 217,0 39,1 55,-19 54,-69l0 -135 0 -426c0,-1196 615,-2040 1971,-2040 1356,0 2046,844 2046,2036l0 3086 -690 0 0 -3075c0,-1621 -2598,-1726 -2598,0l0 1407 -1587 0c-173,0 -278,-106 -278,-325l0 -2285 -2716 0c-443,-4 -851,442 -851,856l0 3422 -811 0 0 -403c-349,239 -419,403 -1270,403 -850,0 -2096,-449 -2096,-2098l0 -3024zm5028 2270l0 -359c0,-211 192,-211 431,-211l1434 0 0 1754c0,765 694,894 1662,894l1908 0 0 -2211c0,-699 851,-699 851,0l0 2985 -3382 0c-757,0 -1509,-328 -1760,-1266l-380 0 0 1266 -764 0 0 -2078 1003 0 0 -774 -1003 0zm-10013 4068l99 0 0 641c0,123 56,184 169,184 112,0 168,-59 168,-177l0 -648 99 0 0 679c0,77 -24,136 -72,176 -47,40 -112,60 -193,60 -89,0 -156,-21 -201,-62 -46,-42 -69,-101 -69,-177l0 -676zm261 -88l0 0zm56 980l0 0zm-413 -915l0 0zm817 23l162 0 284 808 0 0 0 -808 99 0 0 892 -162 0 -284 -812 0 0 0 812 -99 0 0 -892zm283 -88l0 0zm28 980l0 0zm-402 -915l0 0zm843 23l99 0 0 892 -99 0 0 -892zm50 -88l0 0zm-8 980l0 0zm-159 -915l0 0zm661 845l-1 0 212 -822 109 0 -260 892 -121 0 -260 -892 109 0 212 822zm418 70l0 -892 442 0 0 90 -344 0 0 295 322 0 0 89 -322 0 0 328 347 0 0 90 -445 0zm224 -980l0 0zm119 980l0 0zm-431 -915l0 0zm1262 915l-118 0c-10,-41 -18,-77 -22,-110 -4,-32 -5,-65 -5,-99 0,-63 -14,-109 -42,-138 -27,-29 -64,-43 -112,-43l-168 0 0 390 -99 0 0 -892 234 0c112,0 189,21 230,64 41,41 62,100 62,174 0,124 -58,195 -175,214 61,7 102,24 124,50 22,25 34,62 36,112 1,45 8,109 19,193 7,40 19,61 36,64l0 21zm-142 -643c0,-106 -62,-159 -187,-159l-138 0 0 322 154 0c114,0 171,-54 171,-163zm-190 -337l0 0zm33 980l0 0zm-369 -915l0 0zm791 631l102 0 0 0 0 45c0,61 13,106 40,132 27,27 69,40 126,40 56,0 99,-14 127,-43 28,-28 42,-67 42,-116 0,-44 -7,-77 -20,-98 -14,-21 -37,-38 -69,-51l-184 -71c-63,-25 -105,-56 -125,-92 -20,-36 -30,-80 -30,-132 0,-71 23,-130 69,-176 46,-46 105,-69 178,-69 82,0 145,21 189,61 44,40 66,90 66,149 0,13 -1,27 -2,41l-102 0c1,-9 2,-20 2,-32 -1,-34 -14,-64 -39,-90 -25,-26 -58,-40 -100,-40 -55,0 -96,14 -121,40 -25,26 -38,66 -38,120 0,59 29,101 88,124l162 62c69,27 116,57 141,91 24,33 37,80 37,140 0,81 -24,147 -70,197 -46,50 -115,75 -206,75 -81,0 -145,-22 -192,-66 -47,-44 -71,-112 -71,-205l0 -36 0 0zm264 -696l0 0zm5 980l0 0zm444 -892l99 0 0 892 -99 0 0 -892zm50 -88l0 0zm-8 980l0 0zm-159 -915l0 0zm427 915l0 -892 247 0c102,0 178,31 229,92 52,61 78,177 78,347 0,146 -24,258 -71,336 -46,78 -121,117 -224,117l-259 0zm99 -90l156 0c68,0 118,-26 149,-78 32,-51 48,-146 48,-284 0,-115 -14,-202 -44,-261 -29,-60 -81,-89 -157,-89l-152 0 0 712zm139 -890l0 0zm-335 65l0 0zm738 915l251 -892 131 0 251 892 -110 0 -68 -256 0 0 -281 0 0 0 -64 256 -110 0zm198 -345l0 0 233 0 0 0 -117 -481 0 0 -116 481zm116 -635l0 0zm242 980l0 0zm-568 -915l0 0zm758 915l0 -892 246 0c103,0 179,31 230,92 52,61 77,177 77,347 0,146 -23,258 -70,336 -47,78 -121,117 -224,117l-259 0zm98 -90l156 0c69,0 118,-26 150,-78 32,-51 48,-146 48,-284 0,-115 -15,-202 -44,-261 -29,-60 -81,-89 -158,-89l-152 0 0 712zm140 -890l0 0zm-335 65l0 0zm813 915l0 -892 442 0 0 90 -343 0 0 295 322 0 0 89 -322 0 0 328 346 0 0 90 -445 0zm225 -980l0 0zm119 980l0 0zm-431 -915l0 0zm979 915l0 -892 414 0 0 90 -316 0 0 290 293 0 0 89 -293 0 0 423 -98 0zm527 0l0 -892 442 0 0 90 -343 0 0 295 322 0 0 89 -322 0 0 328 346 0 0 90 -445 0zm225 -980l0 0zm118 980l0 0zm-431 -915l0 0zm691 915l0 -892 247 0c102,0 179,31 230,92 51,61 77,177 77,347 0,146 -23,258 -70,336 -47,78 -122,117 -224,117l-260 0zm99 -90l156 0c68,0 118,-26 150,-78 31,-51 47,-146 47,-284 0,-115 -14,-202 -43,-261 -29,-60 -82,-89 -158,-89l-152 0 0 712zm139 -890l0 0zm-334 65l0 0zm813 915l0 -892 442 0 0 90 -343 0 0 295 322 0 0 89 -322 0 0 328 346 0 0 90 -445 0zm224 -980l0 0zm119 980l0 0zm-431 -915l0 0zm1262 915l-118 0c-10,-41 -18,-77 -22,-110 -3,-32 -5,-65 -5,-99 0,-63 -14,-109 -41,-138 -28,-29 -65,-43 -113,-43l-168 0 0 390 -99 0 0 -892 234 0c112,0 189,21 230,64 41,41 62,100 62,174 0,124 -58,195 -174,214 60,7 102,24 123,50 22,25 34,62 36,112 2,45 8,109 19,193 7,40 19,61 36,64l0 21zm-142 -643c0,-106 -62,-159 -187,-159l-138 0 0 322 155 0c113,0 170,-54 170,-163zm-190 -337l0 0zm33 980l0 0zm-368 -915l0 0zm738 915l250 -892 131 0 251 892 -110 0 -68 -256 0 0 -281 0 0 0 -64 256 -109 0zm197 -345l0 0 233 0 0 0 -116 -481 0 0 -117 481zm117 -635l0 0zm242 980l0 0zm-569 -915l0 0zm760 23l98 0 0 802 363 0 0 90 -461 0 0 -892zm90 -88l0 0zm163 980l0 0zm-352 -915l0 0zm988 915l0 -892 247 0c102,0 179,31 230,92 51,61 77,177 77,347 0,146 -24,258 -70,336 -47,78 -122,117 -224,117l-260 0zm99 -90l156 0c68,0 118,-26 150,-78 31,-51 47,-146 47,-284 0,-115 -14,-202 -43,-261 -29,-60 -82,-89 -158,-89l-152 0 0 712zm139 -890l0 0zm-335 65l0 0zm814 915l0 -892 442 0 0 90 -344 0 0 295 322 0 0 89 -322 0 0 328 347 0 0 90 -445 0zm224 -980l0 0zm119 980l0 0zm-431 -915l0 0zm990 23l99 0 0 802 362 0 0 90 -461 0 0 -892zm90 -88l0 0zm164 980l0 0zm-353 -915l0 0zm607 915l251 -892 131 0 250 892 -109 0 -69 -256 0 0 -281 0 0 0 -63 256 -110 0zm197 -345l0 0 233 0 0 0 -116 -481 0 0 -117 481zm117 -635l0 0zm242 980l0 0zm-568 -915l0 0zm991 845l0 0 211 -822 110 0 -260 892 -122 0 -260 -892 110 0 211 822zm998 70l-118 0c-10,-41 -18,-77 -22,-110 -4,-32 -5,-65 -5,-99 0,-63 -14,-109 -42,-138 -27,-29 -64,-43 -112,-43l-168 0 0 390 -99 0 0 -892 234 0c112,0 189,21 230,64 41,41 62,100 62,174 0,124 -58,195 -174,214 60,7 102,24 123,50 22,25 34,62 36,112 2,45 8,109 19,193 7,40 19,61 36,64l0 21zm-142 -643c0,-106 -62,-159 -187,-159l-138 0 0 322 155 0c113,0 170,-54 170,-163zm-190 -337l0 0zm33 980l0 0zm-369 -915l0 0zm739 915l250 -892 131 0 251 892 -110 0 -68 -256 0 0 -281 0 0 0 -64 256 -109 0zm197 -345l0 0 233 0 0 0 -117 -481 0 0 -116 481zm116 -635l0 0zm242 980l0 0zm-568 -915l0 0zm726 631l102 0 0 0 0 45c0,61 13,106 40,132 27,27 69,40 126,40 56,0 98,-14 127,-43 28,-28 42,-67 42,-116 0,-44 -7,-77 -20,-98 -14,-21 -37,-38 -69,-51l-184 -71c-63,-25 -105,-56 -125,-92 -20,-36 -30,-80 -30,-132 0,-71 23,-130 69,-176 46,-46 105,-69 178,-69 82,0 145,21 188,61 45,40 67,90 67,149 0,13 -1,27 -2,41l-102 0c1,-9 2,-20 2,-32 -1,-34 -14,-64 -39,-90 -25,-26 -58,-40 -100,-40 -55,0 -96,14 -121,40 -26,26 -38,66 -38,120 0,59 29,101 88,124l162 62c69,27 116,57 141,91 24,33 37,80 37,140 0,81 -24,147 -70,197 -46,50 -115,75 -206,75 -81,0 -145,-22 -192,-66 -47,-44 -71,-112 -71,-205l0 -36 0 0zm263 -696l0 0zm6 980l0 0z"/>
  <path class="fil0" d="M78232 6144c1950,0 3541,1591 3541,3541 0,1336 -748,2504 -1846,3106l15366 0 0 419 -16738 0c-5,1 -9,1 -13,2l1198 -5880 -4773 3719c-177,-420 -275,-882 -275,-1366 0,-1950 1590,-3541 3540,-3541zm-16 7081c-142,0 -282,-9 -420,-27l893 -4130 -3328 2684c-89,-124 -171,-254 -244,-389l4212 -3300 -1113 5162zm-825 -101c-722,-177 -1359,-577 -1833,-1122l2720 -2203 -887 3325z"/>
  <path class="fil1" d="M5426 7941c0,261 -66,493 -198,696 -131,202 -320,359 -564,470 -244,111 -529,166 -853,166l-350 0 0 1227 -1149 0 0 -3817 1562 0c537,0 930,101 1179,306 249,204 373,522 373,952zm-1214 40c0,-157 -45,-275 -135,-355 -91,-80 -223,-120 -399,-120l-217 0 0 944 257 0c330,0 494,-157 494,-469zm3648 2519l-284 -823c-55,-161 -127,-288 -214,-380 -88,-92 -183,-139 -285,-139l-46 0 0 1342 -1149 0 0 -3817 1525 0c533,0 927,87 1181,262 254,175 381,437 381,787 0,262 -73,482 -221,659 -148,179 -369,307 -661,387l0 11c162,49 296,130 403,241 108,112 204,278 289,498l375 972 -1294 0zm-110 -2606c0,-128 -39,-229 -117,-303 -77,-75 -200,-112 -366,-112l-236 0 0 872 207 0c154,0 278,-43 371,-130 94,-87 141,-196 141,-327zm4236 2606l-168 -703 -1137 0 -181 703 -1241 0 1313 -3817 1425 0 1236 3817 -1247 0zm-725 -2988l-26 0c-4,42 -15,112 -37,210 -21,98 -129,517 -322,1257l729 0 -266 -1038c-37,-153 -63,-297 -78,-429zm2418 2988l0 -3817 2373 0 0 899 -1224 0 0 557 1149 0 0 900 -1149 0 0 561 1312 0 0 900 -2461 0zm5841 -105c-316,114 -679,170 -1092,170 -406,0 -756,-77 -1050,-232 -294,-156 -519,-377 -674,-664 -155,-286 -233,-617 -233,-991 0,-403 87,-762 261,-1076 173,-314 419,-557 737,-728 316,-171 681,-257 1094,-257 330,0 649,40 957,120l0 1064c-106,-64 -233,-114 -380,-149 -147,-36 -296,-53 -446,-53 -313,0 -559,90 -739,269 -180,179 -270,422 -270,729 0,305 90,546 270,722 180,177 421,265 722,265 279,0 559,-71 843,-213l0 1024z"/>
  <path class="fil1" d="M2544 12429l0 321 -147 0 0 -887 269 0c102,0 180,24 236,72 57,47 85,114 85,200 0,86 -30,157 -88,211 -59,55 -138,83 -237,83l-118 0zm0 -444l0 324 95 0c63,0 111,-15 144,-44 33,-29 49,-71 49,-124 0,-104 -60,-156 -181,-156l-107 0zm1277 765l-172 0 -141 -237c-13,-22 -25,-41 -38,-56 -12,-16 -24,-28 -37,-38 -12,-10 -26,-17 -41,-22 -15,-4 -31,-7 -50,-7l-59 0 0 360 -146 0 0 -887 291 0c42,0 80,5 115,15 35,10 65,25 91,45 26,20 46,45 61,75 15,30 22,65 22,105 0,31 -5,60 -14,86 -9,26 -22,50 -39,70 -18,20 -38,38 -62,52 -24,15 -51,26 -81,34l0 2c16,9 30,19 42,30 12,11 23,22 34,34 10,11 21,24 31,39 11,15 23,32 35,51l158 249zm-538 -767l0 288 122 0c23,0 44,-4 63,-11 19,-7 36,-17 50,-30 14,-13 24,-29 32,-48 8,-19 12,-40 12,-64 0,-42 -13,-76 -40,-99 -27,-24 -65,-36 -116,-36l-123 0zm993 782c-127,0 -229,-41 -306,-124 -77,-83 -115,-191 -115,-324 0,-142 39,-256 117,-341 78,-85 185,-128 319,-128 124,0 224,42 300,124 76,83 114,191 114,324 0,144 -39,259 -117,343 -78,84 -181,126 -312,126zm7 -787c-81,0 -147,30 -198,91 -50,60 -76,140 -76,239 0,99 25,178 74,238 50,60 114,90 194,90 85,0 152,-28 201,-85 49,-58 73,-138 73,-241 0,-106 -23,-188 -71,-246 -48,-57 -113,-86 -197,-86zm184 -408l-177 203 -106 0 149 -203 134 0zm717 887l-337 0 0 -106 337 0 0 106zm876 293l-172 0 -141 -237c-13,-22 -25,-41 -38,-56 -12,-16 -24,-28 -37,-38 -12,-10 -26,-17 -41,-22 -15,-4 -31,-7 -50,-7l-59 0 0 360 -146 0 0 -887 291 0c42,0 80,5 115,15 35,10 65,25 91,45 26,20 46,45 61,75 15,30 22,65 22,105 0,31 -5,60 -14,86 -9,26 -22,50 -39,70 -17,20 -38,38 -62,52 -24,15 -51,26 -81,34l0 2c16,9 30,19 42,30 12,11 23,22 34,34 10,11 21,24 31,39 11,15 23,32 35,51l158 249zm-538 -767l0 288 122 0c23,0 44,-4 63,-11 19,-7 36,-17 50,-30 14,-13 24,-29 32,-48 8,-19 12,-40 12,-64 0,-42 -13,-76 -40,-99 -27,-24 -65,-36 -116,-36l-123 0zm1138 767l-497 0 0 -887 477 0 0 125 -330 0 0 251 304 0 0 125 -304 0 0 262 350 0 0 124zm308 0l-151 0 0 -887 151 0 0 887zm786 -762l-254 0 0 762 -147 0 0 -762 -254 0 0 -125 655 0 0 125zm442 777c-127,0 -230,-41 -307,-124 -76,-83 -115,-191 -115,-324 0,-142 40,-256 118,-341 78,-85 184,-128 318,-128 125,0 225,42 301,124 76,83 114,191 114,324 0,144 -39,259 -117,343 -78,84 -182,126 -312,126zm7 -787c-81,0 -147,30 -198,91 -51,60 -76,140 -76,239 0,99 25,178 74,238 49,60 114,90 194,90 85,0 152,-28 200,-85 49,-58 74,-138 74,-241 0,-106 -24,-188 -71,-246 -48,-57 -113,-86 -197,-86zm1268 772l-171 0 -142 -237c-13,-22 -25,-41 -37,-56 -12,-16 -25,-28 -37,-38 -13,-10 -26,-17 -41,-22 -15,-4 -32,-7 -50,-7l-60 0 0 360 -146 0 0 -887 291 0c42,0 80,5 115,15 35,10 66,25 92,45 26,20 46,45 60,75 15,30 22,65 22,105 0,31 -4,60 -13,86 -10,26 -23,50 -40,70 -17,20 -38,38 -62,52 -24,15 -51,26 -81,34l0 2c16,9 30,19 42,30 12,11 23,22 34,34 11,11 21,24 32,39 10,15 22,32 35,51l157 249zm-538 -767l0 288 123 0c22,0 43,-4 62,-11 19,-7 36,-17 50,-30 14,-13 25,-29 33,-48 8,-19 11,-40 11,-64 0,-42 -13,-76 -40,-99 -26,-24 -65,-36 -115,-36l-124 0zm792 767l-151 0 0 -887 151 0 0 887zm945 0l-161 0 -80 -225 -348 0 -76 225 -161 0 332 -887 165 0 329 887zm-279 -346l-123 -353c-4,-12 -8,-30 -12,-56l-3 0c-3,24 -7,42 -12,56l-122 353 272 0zm749 346l0 -887 255 0c327,0 490,144 490,433 0,137 -45,247 -136,330 -91,83 -212,124 -364,124l-245 0zm146 -762l0 638 117 0c104,0 184,-29 241,-85 58,-57 86,-138 86,-242 0,-207 -107,-311 -321,-311l-123 0zm1258 762l-497 0 0 -887 477 0 0 125 -330 0 0 251 304 0 0 125 -304 0 0 262 350 0 0 124zm1232 0l-161 0 -80 -225 -348 0 -77 225 -160 0 331 -887 166 0 329 887zm-280 -346l-122 -353c-4,-12 -8,-30 -12,-56l-3 0c-3,24 -8,42 -12,56l-122 353 271 0zm361 311l0 -152c14,13 30,24 48,34 19,10 39,18 60,25 21,7 42,12 63,16 21,3 40,5 58,5 62,0 108,-10 138,-31 30,-20 45,-50 45,-89 0,-21 -5,-40 -15,-55 -10,-16 -24,-30 -42,-42 -18,-13 -39,-26 -64,-37 -25,-12 -51,-24 -79,-37 -30,-16 -58,-32 -84,-49 -26,-16 -48,-35 -67,-55 -19,-20 -34,-42 -45,-67 -11,-25 -17,-55 -17,-89 0,-41 10,-78 28,-108 19,-31 44,-56 74,-77 31,-19 66,-34 105,-44 39,-10 79,-15 120,-15 93,0 160,11 202,32l0 145c-50,-36 -114,-54 -193,-54 -22,0 -44,2 -66,6 -21,4 -40,11 -58,21 -17,9 -31,21 -41,36 -11,15 -16,33 -16,54 0,20 4,37 12,51 8,15 20,28 36,40 16,12 35,23 58,35 23,11 49,23 80,37 30,16 59,32 87,50 27,18 51,38 72,59 21,21 37,45 49,71 13,27 19,56 19,90 0,45 -9,83 -27,114 -19,31 -43,56 -74,75 -30,19 -66,34 -106,42 -39,9 -82,13 -126,13 -15,0 -33,-1 -55,-3 -21,-3 -43,-6 -66,-10 -23,-4 -44,-10 -64,-16 -21,-6 -37,-13 -49,-21zm688 0l0 -152c14,13 30,24 49,34 19,10 38,18 60,25 20,7 41,12 63,16 20,3 40,5 58,5 61,0 107,-10 138,-31 30,-20 45,-50 45,-89 0,-21 -5,-40 -15,-55 -10,-16 -24,-30 -42,-42 -19,-13 -40,-26 -64,-37 -25,-12 -51,-24 -79,-37 -30,-16 -58,-32 -84,-49 -26,-16 -48,-35 -68,-55 -19,-20 -34,-42 -45,-67 -11,-25 -16,-55 -16,-89 0,-41 9,-78 28,-108 19,-31 43,-56 74,-77 31,-19 66,-34 105,-44 39,-10 79,-15 119,-15 93,0 161,11 203,32l0 145c-50,-36 -115,-54 -194,-54 -22,0 -43,2 -65,6 -22,4 -41,11 -58,21 -17,9 -31,21 -42,36 -10,15 -16,33 -16,54 0,20 4,37 12,51 9,15 21,28 37,40 16,12 35,23 58,35 22,11 49,23 79,37 31,16 60,32 87,50 28,18 52,38 73,59 21,21 37,45 49,71 12,27 18,56 18,90 0,45 -9,83 -27,114 -18,31 -42,56 -73,75 -31,19 -66,34 -106,42 -40,9 -82,13 -126,13 -15,0 -34,-1 -55,-3 -22,-3 -44,-6 -67,-10 -22,-4 -44,-10 -64,-16 -20,-6 -36,-13 -49,-21zm1411 -323c0,249 -118,373 -353,373 -226,0 -339,-120 -339,-359l0 -543 147 0 0 513c0,174 68,260 203,260 130,0 195,-84 195,-251l0 -522 147 0 0 529zm959 358l-161 0 -423 -652c-10,-16 -19,-33 -26,-51l-4 0c4,19 5,60 5,122l0 581 -142 0 0 -887 171 0 409 637c17,26 28,44 33,54l3 0c-4,-23 -7,-63 -7,-119l0 -572 142 0 0 887zm787 -762l-254 0 0 762 -147 0 0 -762 -254 0 0 -125 655 0 0 125zm443 777c-128,0 -230,-41 -307,-124 -77,-83 -115,-191 -115,-324 0,-142 39,-256 117,-341 78,-85 185,-128 319,-128 124,0 224,42 300,124 76,83 114,191 114,324 0,144 -39,259 -117,343 -78,84 -181,126 -311,126zm6 -787c-81,0 -147,30 -198,91 -50,60 -76,140 -76,239 0,99 25,178 74,238 50,60 114,90 194,90 85,0 152,-28 201,-85 49,-58 73,-138 73,-241 0,-106 -23,-188 -71,-246 -48,-57 -113,-86 -197,-86zm544 737l0 -152c13,13 29,24 48,34 19,10 39,18 60,25 21,7 42,12 63,16 21,3 40,5 58,5 62,0 107,-10 138,-31 30,-20 45,-50 45,-89 0,-21 -5,-40 -15,-55 -10,-16 -24,-30 -42,-42 -18,-13 -40,-26 -64,-37 -25,-12 -51,-24 -79,-37 -30,-16 -58,-32 -84,-49 -26,-16 -48,-35 -67,-55 -20,-20 -35,-42 -46,-67 -11,-25 -16,-55 -16,-89 0,-41 9,-78 28,-108 19,-31 44,-56 74,-77 31,-19 66,-34 105,-44 39,-10 79,-15 120,-15 92,0 160,11 202,32l0 145c-50,-36 -115,-54 -194,-54 -21,0 -43,2 -65,6 -21,4 -41,11 -58,21 -17,9 -31,21 -41,36 -11,15 -16,33 -16,54 0,20 4,37 12,51 8,15 20,28 36,40 16,12 35,23 58,35 23,11 49,23 79,37 31,16 60,32 88,50 27,18 51,38 72,59 21,21 37,45 49,71 12,27 19,56 19,90 0,45 -9,83 -28,114 -18,31 -42,56 -73,75 -30,19 -66,34 -106,42 -40,9 -82,13 -126,13 -15,0 -33,-1 -55,-3 -21,-3 -44,-6 -66,-10 -23,-4 -44,-10 -64,-16 -21,-6 -37,-13 -49,-21zm-16349 1720l-497 0 0 -887 477 0 0 125 -330 0 0 251 304 0 0 125 -304 0 0 262 350 0 0 124zm116 -35l0 -152c14,13 30,24 49,34 19,10 38,18 59,25 21,7 42,12 64,16 20,3 40,5 57,5 62,0 108,-10 139,-31 30,-20 45,-50 45,-89 0,-21 -5,-40 -15,-55 -10,-16 -24,-30 -42,-42 -19,-13 -40,-26 -64,-37 -25,-12 -51,-24 -79,-37 -30,-16 -58,-32 -84,-49 -26,-16 -49,-35 -68,-55 -19,-20 -34,-42 -45,-67 -11,-25 -16,-55 -16,-89 0,-41 9,-78 28,-108 19,-31 43,-56 74,-77 31,-19 66,-34 105,-44 39,-10 79,-15 119,-15 93,0 161,11 203,32l0 145c-50,-36 -115,-54 -194,-54 -22,0 -43,2 -65,6 -22,4 -41,11 -58,21 -17,9 -31,21 -42,36 -10,15 -16,33 -16,54 0,20 4,37 12,51 9,15 21,28 37,40 16,12 35,23 58,35 22,11 49,23 79,37 31,16 60,32 87,50 28,18 52,38 73,59 21,21 37,45 49,71 12,27 18,56 18,90 0,45 -9,83 -27,114 -18,31 -42,56 -73,75 -31,19 -66,34 -106,42 -40,9 -82,13 -126,13 -15,0 -34,-1 -55,-3 -22,-3 -44,-6 -67,-10 -22,-4 -44,-10 -64,-16 -20,-6 -36,-13 -49,-21zm1298 -727l-255 0 0 762 -146 0 0 -762 -254 0 0 -125 655 0 0 125zm811 404c0,248 -118,373 -354,373 -225,0 -338,-120 -338,-359l0 -543 147 0 0 513c0,173 68,260 203,260 130,0 195,-84 195,-251l0 -522 147 0 0 529zm208 358l0 -887 255 0c327,0 490,144 490,433 0,137 -45,247 -136,330 -90,83 -212,124 -364,124l-245 0zm146 -762l0 638 118 0c103,0 183,-29 241,-85 57,-57 86,-138 86,-242 0,-207 -107,-311 -322,-311l-123 0zm1469 762l-162 0 -79 -225 -348 0 -77 225 -161 0 332 -887 165 0 330 887zm-280 -346l-123 -353c-4,-12 -8,-30 -12,-56l-2 0c-4,24 -8,42 -12,56l-122 353 271 0zm1152 346l-161 0 -422 -652c-11,-16 -20,-33 -27,-51l-4 0c4,19 5,60 5,122l0 581 -142 0 0 -887 171 0 409 637c17,26 28,44 33,54l3 0c-4,-23 -6,-63 -6,-119l0 -572 141 0 0 887zm787 -762l-254 0 0 762 -147 0 0 -762 -254 0 0 -125 655 0 0 125zm281 762l-151 0 0 -887 151 0 0 887zm177 -35l0 -152c14,13 30,24 49,34 18,10 38,18 59,25 21,7 42,12 63,16 21,3 40,5 58,5 62,0 108,-10 138,-31 30,-20 46,-50 46,-89 0,-21 -6,-40 -16,-55 -10,-16 -24,-30 -42,-42 -18,-13 -39,-26 -64,-37 -24,-12 -50,-24 -78,-37 -31,-16 -58,-32 -84,-49 -26,-16 -49,-35 -68,-55 -19,-20 -34,-42 -45,-67 -11,-25 -17,-55 -17,-89 0,-41 10,-78 29,-108 18,-31 43,-56 74,-77 30,-19 65,-34 104,-44 39,-10 79,-15 120,-15 93,0 160,11 203,32l0 145c-50,-36 -115,-54 -194,-54 -22,0 -44,2 -65,6 -22,4 -41,11 -58,21 -17,9 -31,21 -42,36 -11,15 -16,33 -16,54 0,20 4,37 12,51 8,15 20,28 36,40 16,12 36,23 58,35 23,11 50,23 80,37 31,16 60,32 87,50 27,18 52,38 72,59 21,21 38,45 50,71 12,27 18,56 18,90 0,45 -9,83 -27,114 -18,31 -43,56 -73,75 -31,19 -66,34 -106,42 -40,9 -82,13 -127,13 -15,0 -33,-1 -55,-3 -21,-3 -43,-6 -66,-10 -23,-4 -44,-10 -64,-16 -20,-6 -37,-13 -49,-21zm1574 35l-497 0 0 -887 477 0 0 125 -330 0 0 251 304 0 0 125 -304 0 0 262 350 0 0 124zm1122 -37c-66,35 -149,52 -248,52 -129,0 -232,-40 -309,-122 -77,-81 -116,-188 -116,-320 0,-141 43,-256 131,-343 87,-88 197,-132 330,-132 85,0 156,13 212,37l0 146c-59,-35 -125,-53 -197,-53 -96,0 -174,30 -233,92 -60,61 -90,143 -90,246 0,98 28,176 84,233 56,59 129,87 219,87 84,0 156,-19 217,-59l0 136zm517 52c-127,0 -229,-41 -306,-124 -77,-83 -115,-191 -115,-324 0,-142 39,-256 117,-341 78,-85 184,-128 318,-128 125,0 225,42 301,124 76,83 114,191 114,324 0,144 -39,259 -117,343 -78,84 -182,126 -312,126zm7 -787c-81,0 -147,30 -198,91 -51,60 -76,140 -76,239 0,99 25,178 74,238 49,60 114,90 194,90 85,0 152,-28 201,-85 48,-58 73,-138 73,-241 0,-106 -24,-188 -71,-246 -48,-57 -113,-86 -197,-86zm1535 772l-146 0 0 -574c0,-47 3,-104 9,-172l-2 0c-10,38 -18,66 -25,83l-264 663 -101 0 -265 -658c-7,-19 -15,-49 -24,-88l-2 0c3,35 5,93 5,173l0 573 -136 0 0 -887 207 0 233 591c17,45 29,79 34,101l3 0c16,-46 28,-81 38,-103l237 -589 199 0 0 887zm899 -358c0,248 -118,373 -353,373 -226,0 -338,-120 -338,-359l0 -543 147 0 0 513c0,173 67,260 202,260 130,0 195,-84 195,-251l0 -522 147 0 0 529zm959 358l-160 0 -423 -652c-11,-16 -20,-33 -27,-51l-4 0c4,19 5,60 5,122l0 581 -142 0 0 -887 171 0 409 637c18,26 29,44 34,54l2 0c-4,-23 -6,-63 -6,-119l0 -572 141 0 0 887zm370 0l-151 0 0 -887 151 0 0 887zm786 -762l-254 0 0 762 -147 0 0 -762 -254 0 0 -125 655 0 0 125zm771 762l-161 0 -80 -225 -348 0 -77 225 -160 0 331 -887 166 0 329 887zm-280 -346l-123 -353c-4,-12 -8,-30 -12,-56l-2 0c-4,24 -8,42 -12,56l-122 353 271 0zm32 -834l-177 203 -106 0 149 -203 134 0zm1054 1180l-172 0 -142 -237c-12,-22 -25,-41 -37,-56 -12,-16 -24,-28 -37,-38 -12,-10 -26,-17 -41,-22 -15,-4 -31,-7 -50,-7l-59 0 0 360 -147 0 0 -887 292 0c41,0 80,5 115,15 35,10 65,25 91,45 26,20 46,45 61,75 15,30 22,65 22,105 0,31 -5,60 -14,86 -9,26 -23,50 -40,70 -17,20 -37,38 -61,52 -24,14 -52,26 -82,33l0 3c16,9 30,19 42,30 12,11 24,22 34,34 11,11 22,24 32,39 11,15 22,32 35,51l158 249zm-538 -767l0 288 122 0c23,0 44,-4 63,-11 19,-7 35,-17 49,-30 14,-13 25,-29 33,-48 8,-19 12,-40 12,-64 0,-42 -13,-76 -40,-99 -27,-24 -66,-36 -116,-36l-123 0zm791 767l-151 0 0 -887 151 0 0 887zm583 15c-127,0 -230,-41 -307,-124 -76,-83 -115,-191 -115,-324 0,-142 40,-256 118,-341 78,-85 184,-128 318,-128 125,0 225,42 301,124 76,83 114,191 114,324 0,144 -39,259 -117,343 -78,84 -182,126 -312,126zm7 -787c-81,0 -147,30 -198,91 -51,60 -76,140 -76,239 0,99 25,178 74,238 49,60 114,90 194,90 85,0 152,-28 200,-85 49,-58 74,-138 74,-241 0,-106 -24,-188 -71,-246 -48,-57 -113,-86 -197,-86zm543 737l0 -152c14,13 30,24 49,34 19,10 38,18 59,25 21,7 42,12 63,16 21,3 41,5 58,5 62,0 108,-10 138,-31 31,-20 46,-50 46,-89 0,-21 -5,-40 -15,-55 -10,-16 -24,-30 -43,-42 -18,-13 -39,-26 -63,-37 -25,-12 -51,-24 -79,-37 -30,-16 -58,-32 -84,-49 -26,-16 -49,-35 -68,-55 -19,-20 -34,-42 -45,-67 -11,-25 -16,-55 -16,-89 0,-41 9,-78 28,-108 18,-31 43,-56 74,-77 31,-19 65,-34 105,-44 39,-10 79,-15 119,-15 93,0 161,11 203,32l0 145c-50,-36 -115,-54 -194,-54 -22,0 -43,2 -65,6 -22,4 -41,11 -58,21 -17,9 -31,21 -42,36 -11,15 -16,33 -16,54 0,20 4,37 12,51 9,15 21,28 37,40 15,12 35,23 58,35 22,11 49,23 79,37 31,16 60,32 87,50 28,18 52,38 73,59 20,21 37,45 49,71 12,27 18,56 18,90 0,45 -9,83 -27,114 -18,31 -43,56 -73,75 -31,19 -66,34 -106,42 -40,9 -82,13 -127,13 -15,0 -33,-1 -54,-3 -22,-3 -44,-6 -67,-10 -22,-4 -44,-10 -64,-16 -20,-6 -36,-13 -49,-21z"/>
  <rect class="fil2" y="4439" width="21000" height="12122"/>
 </g>
</svg>
